HIERARCHY
ROOT joint_Root
{
	OFFSET 0.0 0.0 0.0
	CHANNELS 6 Xposition Yposition Zposition Zrotation Xrotation Yrotation 
	JOINT Hips
	{
		OFFSET 4.5925 91.4895 -427.239
		CHANNELS 6 Xposition Yposition Zposition Zrotation Xrotation Yrotation 
		JOINT Spine
		{
			OFFSET 15.7357 0.0 0.0
			CHANNELS 6 Xposition Yposition Zposition Zrotation Xrotation Yrotation 
			JOINT Chest
			{
				OFFSET 8.98455 -0.406207 0.0
				CHANNELS 6 Xposition Yposition Zposition Zrotation Xrotation Yrotation 
				JOINT Neck
				{
					OFFSET 16.3773 0.0 0.0
					CHANNELS 6 Xposition Yposition Zposition Zrotation Xrotation Yrotation 
					JOINT Head
					{
						OFFSET 6.45672 0.0 0.0
						CHANNELS 6 Xposition Yposition Zposition Zrotation Xrotation Yrotation 
						End Site
						{
							OFFSET 0.0 0.0 0.0
						}
					}
				}
				JOINT Shoulder_L
				{
					OFFSET 12.9942 -0.242716 4.98039
					CHANNELS 6 Xposition Yposition Zposition Zrotation Xrotation Yrotation 
					JOINT UpperArm_L
					{
						OFFSET 5.34809 0.0 0.0
						CHANNELS 6 Xposition Yposition Zposition Zrotation Xrotation Yrotation 
						JOINT LowerArm_L
						{
							OFFSET 24.3286 1.87007e-05 0.0
							CHANNELS 6 Xposition Yposition Zposition Zrotation Xrotation Yrotation 
							JOINT Hand_L
							{
								OFFSET 22.2916 0.0 0.0
								CHANNELS 6 Xposition Yposition Zposition Zrotation Xrotation Yrotation 
								End Site
								{
									OFFSET 0.0 0.0 0.0
								}
							}
						}
					}
				}
				JOINT Shoulder_R
				{
					OFFSET 12.9945 -0.242716 -4.98039
					CHANNELS 6 Xposition Yposition Zposition Zrotation Xrotation Yrotation 
					JOINT UpperArm_R
					{
						OFFSET -5.34813 0.0 0.0
						CHANNELS 6 Xposition Yposition Zposition Zrotation Xrotation Yrotation 
						JOINT LowerArm_R
						{
							OFFSET -24.3289 0.000322201 0.0
							CHANNELS 6 Xposition Yposition Zposition Zrotation Xrotation Yrotation 
							JOINT Hand_R
							{
								OFFSET -22.2915 -0.000108084 0.0
								CHANNELS 6 Xposition Yposition Zposition Zrotation Xrotation Yrotation 
								End Site
								{
									OFFSET 0.0 0.0 0.0
								}
							}
						}
					}
				}
			}
		}
		JOINT UpperLeg_L
		{
			OFFSET -2.19248 -6.46944 0.0
			CHANNELS 6 Xposition Yposition Zposition Zrotation Xrotation Yrotation 
			JOINT LowerLeg_L
			{
				OFFSET 39.0811 0.0 -1.23785e-05
				CHANNELS 6 Xposition Yposition Zposition Zrotation Xrotation Yrotation 
				JOINT Foot_L
				{
					OFFSET 40.9854 0.0 -1.26872e-05
					CHANNELS 6 Xposition Yposition Zposition Zrotation Xrotation Yrotation 
					JOINT Toes_L
					{
						OFFSET 11.7543 0.0 0.0
						CHANNELS 6 Xposition Yposition Zposition Zrotation Xrotation Yrotation 
						End Site
						{
							OFFSET 0.0 0.0 0.0
						}
					}
				}
			}
		}
		JOINT UpperLeg_R
		{
			OFFSET -2.19251 6.46944 0.0
			CHANNELS 6 Xposition Yposition Zposition Zrotation Xrotation Yrotation 
			JOINT LowerLeg_R
			{
				OFFSET -39.0811 -0.00228153 -0.0401928
				CHANNELS 6 Xposition Yposition Zposition Zrotation Xrotation Yrotation 
				JOINT Foot_R
				{
					OFFSET -40.9854 0.0 0.0
					CHANNELS 6 Xposition Yposition Zposition Zrotation Xrotation Yrotation 
					JOINT Toes_R
					{
						OFFSET -11.7543 0.0 0.0
						CHANNELS 6 Xposition Yposition Zposition Zrotation Xrotation Yrotation 
						End Site
						{
							OFFSET 0.0 0.0 0.0
						}
					}
				}
			}
		}
	}
}
MOTION
Frames:	6
Frame Time:	0.0333333
0.000000 0.000000 0.000000 0.000000 0.000000 -0.000000 141.072000 86.674200 140.334000 101.267000 -25.297400 3.671840 15.735700 0.000005 -0.000001 36.507400 82.372500 -35.544700 8.984550 -0.406207 -0.000000 1.451520 -12.308800 2.085900 16.377300 -0.000001 -0.000001 -0.908140 -20.245600 4.582920 6.456720 -0.000001 -0.000000 -4.084470 -19.603600 6.459900 12.994200 -0.242716 4.980390 -89.826100 -0.680006 -75.652500 5.348090 -0.000007 -0.000001 -51.705800 48.041000 -40.817600 24.328600 0.000019 0.000005 8.910080 -0.754508 -94.809700 22.291600 -0.000001 0.000005 11.313600 5.523330 -7.504090 12.994500 -0.242716 -4.980390 90.048900 -0.150322 -71.965100 -5.348130 -0.000001 -0.000004 -69.607200 27.155900 34.157100 -24.328900 0.000322 -0.000009 -7.027560 -2.869270 -67.894900 -22.291500 -0.000108 -0.000004 17.581500 5.549410 -8.666470 -2.192480 -6.469440 -0.000000 -179.635000 -19.861900 4.016210 39.081100 -0.000007 -0.000012 -0.092237 0.112204 39.422300 40.985400 -0.000006 -0.000013 -5.472270 21.654900 -65.395500 11.754300 -0.000000 0.000003 -0.156608 -0.567634 -40.625900 -2.192510 6.469440 -0.000001 -162.047000 26.925600 149.949000 -39.081100 -0.002282 -0.040193 -0.163006 0.308775 28.307800 -40.985400 0.000008 0.000006 30.844100 -9.517610 -56.413400 -11.754300 -0.000006 -0.000006 -0.017228 -0.151421 -22.754800
0.000000 0.000000 0.000000 0.000000 0.000000 -0.000000 139.052000 84.922700 144.997000 102.402000 -28.071800 6.515490 15.735700 0.000005 -0.000001 43.327600 82.787300 -42.545200 8.984550 -0.406207 -0.000000 2.240990 -10.524000 1.773040 16.377300 -0.000001 -0.000001 -0.491513 -20.369900 4.645170 6.456720 -0.000001 -0.000000 -4.458750 -20.876900 5.206730 12.994200 -0.242716 4.980390 -90.446400 1.666560 -75.008300 5.348090 -0.000007 -0.000001 -56.627300 49.328400 -32.242800 24.328600 0.000019 0.000005 10.224800 2.020160 -78.951300 22.291600 -0.000001 0.000005 12.100800 5.522020 -7.448510 12.994500 -0.242716 -4.980390 88.807800 3.612960 -71.725600 -5.348130 -0.000001 -0.000004 -68.440600 29.242800 28.790400 -24.328900 0.000322 -0.000009 -10.749500 -4.356130 -68.190300 -22.291500 -0.000108 -0.000004 20.758100 5.573160 -9.833940 -2.192480 -6.469440 -0.000000 -175.636000 -22.707600 2.484440 39.081100 -0.000007 -0.000012 0.049399 -0.039643 51.249800 40.985400 -0.000006 -0.000013 -15.175000 27.971100 -51.131300 11.754300 -0.000000 0.000003 -0.188081 -0.624941 -43.276900 -2.192510 6.469440 -0.000001 -166.226000 20.202200 153.200000 -39.081100 -0.002282 -0.040193 -0.263795 0.348534 37.463200 -40.985400 0.000008 0.000006 28.271100 -18.390200 -65.974300 -11.754300 -0.000006 -0.000006 -0.015014 -0.137904 -22.199600
0.000000 0.000000 0.000000 0.000000 0.000000 -0.000000 136.930000 83.368100 148.645000 102.336000 -33.871100 8.612510 15.735700 0.000005 -0.000001 55.288600 83.189600 -54.192400 8.984550 -0.406207 -0.000000 3.533980 -7.787330 2.433230 16.377300 -0.000001 -0.000001 -0.662165 -19.453600 4.389720 6.456720 -0.000001 -0.000000 -4.542020 -21.395400 4.939380 12.994200 -0.242716 4.980390 -90.895900 3.086460 -73.805000 5.348090 -0.000007 -0.000001 -60.803700 48.428400 -24.451300 24.328600 0.000019 0.000005 10.453900 6.103200 -60.051500 22.291600 -0.000001 0.000005 11.100500 5.510130 -6.945480 12.994500 -0.242716 -4.980390 87.799600 6.566820 -71.428500 -5.348130 -0.000001 -0.000004 -66.311200 35.343800 18.545400 -24.328900 0.000322 -0.000009 -15.491500 -5.451520 -71.072900 -22.291500 -0.000108 -0.000004 22.905600 5.584560 -10.459000 -2.192480 -6.469440 -0.000000 -173.301000 -20.980900 -2.477590 39.081100 -0.000007 -0.000012 0.277172 -0.140299 63.151700 40.985400 -0.000006 -0.000013 -27.170200 24.061100 -35.418000 11.754300 -0.000000 0.000003 -0.030415 -0.219370 -25.565000 -2.192510 6.469440 -0.000001 -166.777000 12.289000 156.088000 -39.081100 -0.002282 -0.040193 -0.185050 0.194489 44.076500 -40.985400 0.000008 0.000006 27.255600 -23.382000 -69.808500 -11.754300 -0.000006 -0.000006 -0.012717 -0.122931 -21.585500
0.000000 0.000000 0.000000 0.000000 0.000000 -0.000000 134.942000 82.624700 151.455000 102.859000 -40.018500 10.305500 15.735700 0.000005 -0.000001 62.920700 83.087500 -61.710800 8.984550 -0.406207 -0.000000 4.634180 -6.315390 2.674730 16.377300 -0.000001 -0.000001 -0.546558 -17.976200 4.453860 6.456720 -0.000001 -0.000000 -4.560750 -19.989700 4.726470 12.994200 -0.242716 4.980390 -91.163800 3.991810 -73.730800 5.348090 -0.000007 -0.000001 -63.596800 45.845300 -14.505100 24.328600 0.000019 0.000005 8.366020 8.850760 -43.710500 22.291600 -0.000001 0.000005 9.338450 5.487000 -6.018280 12.994500 -0.242716 -4.980390 87.015000 9.363840 -72.228200 -5.348130 -0.000001 -0.000004 -60.179200 42.989300 3.015340 -24.328900 0.000322 -0.000009 -16.058000 -3.510930 -77.999700 -22.291500 -0.000108 -0.000004 22.549900 5.609310 -11.919100 -2.192480 -6.469440 -0.000000 -175.129000 -16.885000 -10.535800 39.081100 -0.000007 -0.000012 0.172707 -0.043907 75.733900 40.985400 -0.000006 -0.000013 -17.236200 12.446600 -38.617700 11.754300 -0.000000 0.000003 -0.008679 -0.093496 -20.384700 -2.192510 6.469440 -0.000001 -167.305000 14.200500 159.796000 -39.081100 -0.002282 -0.040193 -0.148446 0.143060 46.680000 -40.985400 0.000008 0.000006 27.175100 -18.629900 -76.614400 -11.754300 -0.000006 -0.000006 -0.012369 -0.120561 -21.488400
0.000000 0.000000 0.000000 0.000000 0.000000 -0.000000 132.887000 82.978200 153.794000 104.757000 -47.338600 11.976600 15.735700 0.000005 -0.000001 69.540700 83.200000 -68.600600 8.984550 -0.406207 -0.000000 5.029740 -4.766600 2.088390 16.377300 -0.000001 -0.000001 -0.290075 -16.297400 4.968620 6.456720 -0.000001 -0.000000 -4.335340 -18.017400 4.220260 12.994200 -0.242716 4.980390 -91.289700 4.390300 -73.611500 5.348090 -0.000007 -0.000001 -63.983600 46.471400 -2.302820 24.328600 0.000019 0.000005 9.582510 12.127700 -38.783200 22.291600 -0.000001 0.000005 6.124520 5.500820 -6.571940 12.994500 -0.242716 -4.980390 87.319800 9.916870 -74.794600 -5.348130 -0.000001 -0.000004 -55.510600 46.357800 -13.778900 -24.328900 0.000322 -0.000009 -9.455280 -0.567025 -86.613300 -22.291500 -0.000108 -0.000004 20.067600 5.619050 -12.559800 -2.192480 -6.469440 -0.000000 -177.837000 -13.136100 -17.746400 39.081100 -0.000007 -0.000012 -0.058829 0.007450 82.790000 40.985400 -0.000006 -0.000013 -3.475640 -2.893820 -45.510700 11.754300 -0.000000 0.000003 -0.006754 -0.077550 -19.733600 -2.192510 6.469440 -0.000001 -168.903000 12.833700 164.307000 -39.081100 -0.002282 -0.040193 0.010497 -0.007139 45.376600 -40.985400 0.000008 0.000006 28.088800 -13.918200 -80.017500 -11.754300 -0.000006 -0.000006 -0.011045 -0.111283 -21.108500
0.000000 0.000000 0.000000 0.000000 0.000000 -0.000000 130.680000 84.106400 156.092000 108.097000 -56.684600 14.290700 15.735700 0.000005 -0.000001 83.374900 83.660200 -83.054800 8.984550 -0.406207 -0.000000 4.834400 -1.468270 0.701399 16.377300 -0.000001 -0.000001 0.080092 -14.373700 5.469050 6.456720 -0.000001 -0.000000 -3.759330 -17.783100 5.229770 12.994200 -0.242716 4.980390 -91.130900 3.387130 -71.520800 5.348090 -0.000007 -0.000001 -65.754600 51.726100 10.672800 24.328600 0.000019 0.000005 10.931700 12.243200 -42.331700 22.291600 -0.000001 0.000005 4.978590 5.532530 -7.909920 12.994500 -0.242716 -4.980390 88.156600 8.475360 -77.683800 -5.348130 -0.000001 -0.000004 -54.657100 48.134900 -27.741700 -24.328900 0.000322 -0.000009 -7.544770 0.645748 -94.854400 -22.291500 -0.000108 -0.000004 20.995100 5.617030 -12.421600 -2.192480 -6.469440 -0.000000 -179.768000 -10.689600 -22.408700 39.081100 -0.000007 -0.000012 -0.221660 0.025083 83.545900 40.985400 -0.000006 -0.000013 11.827900 -12.275400 -48.956300 11.754300 -0.000000 0.000003 -0.005393 -0.065225 -19.230900 -2.192510 6.469440 -0.000001 -171.216000 9.601370 168.983000 -39.081100 -0.002282 -0.040193 0.039651 -0.040439 41.973800 -40.985400 0.000008 0.000006 28.148400 -7.151320 -81.748500 -11.754300 -0.000006 -0.000006 -0.010315 -0.105976 -20.891300
